#!OML:ASF F:\VICON\USERDATA\INSTALL\rory3\rory3.ASF
:FULLY-SPECIFIED
:DEGREES
73
root 1.3019606070373118 17.818920112783076 35.00793261746868 -3.792179885751949 0.45085261126394527 2.166991921481168
lfemur -3.438698388787854 -2.1769614015661882 -22.208389972233196
ltibia 29.515009899485364
lfoot 3.645447298762617 -7.339635299450158
ltoes -0.7646563314135575
rfemur -16.784630611772684 0.012755329882399913 25.353966265288165
rtibia 40.40595256435172
rfoot -15.347215484518955 -7.353176888479756
rtoes 7.733600647117436
lowerback 11.336848690778591 -0.12019765609528651 -1.4539769928551947
upperback -0.06482546721424709 -0.39630337296882684 1.2500260307333166
thorax -6.070841845916833 -0.16254816216958906 3.140162215453631
lowerneck -15.83736453644191 -3.2582043218379204 -3.1135767252871807
upperneck 21.900089039134805 -4.093103364055514 1.4443182590501493
head 9.572593137849802 -1.9525312285182812 0.5920928979637093
lclavicle -2.0281930953874354e-15 -7.12857882482537e-16
lhumerus -32.95412031229796 4.605238255247694 80.45466888419367
lradius 28.437773534640236
lwrist 9.898127939622011
lhand -31.655220141419363 18.413564058954183
lfingers 7.12502
lthumb -4.814612294627864 49.139426723487944
rclavicle -2.030760977066095e-15 -7.144813841177057e-16
rhumerus -26.864443223471934 -17.708499351061164 -76.71745703409132
rradius 23.552317932365
rwrist 5.215602667813925
rhand -18.001087312010366 21.693639317447055
rfingers 7.12502
rthumb 8.183208509028677 -7.51259231660009
74
root 1.309430624137631 17.762487225031776 36.16886259923933 -3.875758289630173 0.2687253681309335 3.3619315579445193
lfemur -3.6092811448955118 -2.4219068198080196 -22.564615458339446
ltibia 29.94794757461969
lfoot 1.7258524311249666 -5.593734174993532
ltoes -3.083360585371442
rfemur -18.86683388945496 -0.7119917206226649 24.155506747268042
rtibia 46.24983645045227
rfoot -15.627243132655101 -8.278233707072175
rtoes 7.401871695658402
lowerback 11.480483069385434 0.13715521124845034 -2.1019603860081135
upperback -0.03608510019298352 -0.10421834990966278 1.0452933973398886
thorax -6.170045361718019 -0.02395391846131406 3.413684117377734
lowerneck -15.841127610072073 -3.284234680424241 -2.972967005361733
upperneck 21.80262382624643 -4.15545830334704 1.450188657810265
head 9.504549364902259 -1.9718879090042334 0.5585570064085281
lclavicle -2.0297147651335596e-15 -7.13829221570642e-16
lhumerus -32.82861457958886 4.508988723008747 80.54856101432311
lradius 27.261845268099396
lwrist 9.861353348308965
lhand -31.166933893839303 18.92916667718323
lfingers 7.12502
lthumb -4.5546315165102245 48.97436755790719
rclavicle -2.0328909951746593e-15 -7.158413573665892e-16
rhumerus -26.41455256359327 -18.49321654533642 -77.03527121200825
rradius 23.128188216414266
rwrist 5.7880469748801335
rhand -18.074040065997412 21.359631258740016
rfingers 7.12502
rthumb 8.113263518021748 -7.846486496715714
75
root 1.2863291363424507 17.698963747411824 36.71001615786094 -3.2558950492205185 0.6640599883427504 5.099975513067942
lfemur -3.670134737206766 -2.9232764875041153 -23.316004132815795
ltibia 30.05953151321675
lfoot -0.30592800851767077 -4.0999988866785575
ltoes -2.4089868757782957
rfemur -20.787514954927623 -1.240368340988594 22.54941577091802
rtibia 51.792343401841194
rfoot -15.394467318375487 -9.480548526611381
rtoes 6.641487967798069
lowerback 11.324646621755187 0.1599343045315391 -2.9142664083785546
upperback -0.07972608323307548 -0.20558084107390312 0.8154781156771221
thorax -6.124768574264035 -0.03182123879351789 3.8550506682285697
lowerneck -15.985115627407284 -3.296174582803981 -2.7177046574935044
upperneck 21.69512090361493 -4.222669705188719 1.451768637071161
head 9.455851708383891 -1.981088757033015 0.5013206198748718
lclavicle -2.0261911633068987e-15 -7.115731782934198e-16
lhumerus -32.48120968029293 4.036007860530944 80.6906385879621
lradius 25.999191121111913
lwrist 9.297869345343187
lhand -30.863686766627524 20.39704370224024
lfingers 7.12502
lthumb -4.48120408171816 50.493242074938976
rclavicle -2.0278922289106895e-15 -7.126494761462272e-16
rhumerus -26.435153849688422 -19.65440072599288 -77.51651458496616
rradius 22.83107388487606
rwrist 5.33563048743037
rhand -18.20896212008173 21.036415723285312
rfingers 7.12502
rthumb 8.132796616980666 -8.137917015562753
76
root 1.314535297711267 17.660524180916806 36.37054449030456 -2.5955727514160967 0.7560781883885878 5.9025936054367785
lfemur -4.013194891556399 -3.245845791460438 -23.248522310381624
ltibia 30.05427472362485
lfoot -1.6073984152071041 -2.300265496812447
ltoes -2.361225311547278
rfemur -22.465290433576335 -1.0617729110385379 21.912104546071888
rtibia 55.566370907703856
rfoot -14.330493833910563 -10.761933300986872
rtoes 4.620239786086325
lowerback 11.335716737376236 0.19524910932025613 -2.760561229725676
upperback -0.16821667391095585 -0.10012631301675295 0.7774122270543251
thorax -6.1421020011056475 0.011802887649467603 3.793290480039907
lowerneck -16.15631216281006 -3.3154521133727988 -2.5266481673427275
upperneck 21.64343845430571 -4.284024202593357 1.4627588229431956
head 9.467675579159515 -2.001625210811954 0.4670122947045863
lclavicle -2.027096118017408e-15 -7.121455370255511e-16
lhumerus -31.983939250375332 3.4620323919470763 80.8090734910047
lradius 24.554307855118964
lwrist 8.204238133251685
lhand -30.914754008659315 21.036831413062725
lfingers 7.12502
lthumb -4.486188289050677 50.94007496330932
rclavicle -2.0291786038890896e-15 -7.134709291145897e-16
rhumerus -26.789343216424736 -20.69870132049623 -77.83119562444335
rradius 22.126208948611932
rwrist 4.8300720353008115
rhand -18.409556097785284 20.844562243819762
rfingers 7.12502
rthumb 8.008539302385612 -8.31806780017911
77
root 1.3071956459364291 17.635096789400887 35.786988390832775 -2.351731153739763 0.6274963318403962 5.575903792331389
lfemur -3.828156046932215 -3.2349983739189865 -22.505926693843673
ltibia 30.07483380706533
lfoot -2.65734946159019 -0.554848164353289
ltoes -3.3895410987131473
rfemur -23.871531640750916 -0.6967720613306323 22.19444602646874
rtibia 57.59242192524068
rfoot -13.563056039656846 -11.754255827048958
rtoes 3.318621991338743
lowerback 11.574054851433305 0.18345400127850164 -2.381467330543087
upperback -0.15396087933096833 -0.036678214171189716 0.8970858635394923
thorax -6.284226655092575 0.04118586518257705 3.696569678683275
lowerneck -16.31346060057123 -3.348643049788723 -2.427421348726283
upperneck 21.501424311558463 -4.372524075894742 1.5121954050312754
head 9.47108641552436 -2.0237977763622546 0.4429503617517717
lclavicle -2.0263115686683335e-15 -7.116465191185433e-16
lhumerus -31.532716083260627 3.1567142525364478 80.82018170172428
lradius 23.2530287538702
lwrist 6.640845533045862
lhand -30.696736805422475 21.394421098686202
lfingers 7.12502
lthumb -4.184744808630554 50.99713135064549
rclavicle -2.025175577347576e-15 -7.1091497025121e-16
rhumerus -27.40375788941112 -21.58206926069411 -77.91803885063071
rradius 21.859376048331193
rwrist 4.302431417649885
rhand -18.49897966287361 20.678625511696833
rfingers 7.12502
rthumb 7.860700281495213 -8.562432483854451
78
root 1.2768707650107083 17.63094556773885 35.42461607227845 -1.938685864958118 0.14234350035055843 4.704356299760649
lfemur -3.4634588345714103 -2.9708517520468742 -21.65365347538267
ltibia 29.950310771745492
lfoot -3.168446311242392 -0.07308308023427479
ltoes -3.2872998997271328
rfemur -24.983855429212536 0.1501648388439223 22.866436825680843
rtibia 57.58490101441316
rfoot -12.58094771901994 -12.379209499422625
rtoes 2.7198246826381167
lowerback 11.646309614140804 0.23242922734596072 -2.0326510919021743
upperback -0.14012657439446247 0.09291548068013689 1.1327309145460034
thorax -6.315432400364426 0.13385832927363864 3.6630640931527365
lowerneck -16.407742968476306 -3.3676059685537933 -2.368537773806969
upperneck 21.367017769681194 -4.431567200324044 1.621124758468609
head 9.473123983820246 -2.0438999115571463 0.4551280238806461
lclavicle -2.024891932128252e-15 -7.107445467256094e-16
lhumerus -31.012642631310932 2.8751335378651577 80.81918051442166
lradius 22.435550753253732
lwrist 4.809237752595418
lhand -30.19882873633469 21.735376276910433
lfingers 7.12502
lthumb -3.6425590431814436 51.20711729013168
rclavicle -2.023600294376409e-15 -7.09909297350037e-16
rhumerus -28.101535752985168 -21.784912513236 -78.08070165581086
rradius 21.931802391280836
rwrist 3.646088123235498
rhand -18.475009352440292 20.63193382966468
rfingers 7.12502
rthumb 7.966381263434246 -8.62260118596219
79
root 1.2650671555507678 17.644678461520375 35.36631435465713 -1.573290450767513 -0.17982723128248967 4.639260010990249
lfemur -2.690056878968674 -2.9664734764634044 -21.53316679474564
ltibia 29.304304675712192
lfoot -3.365135045757142 0.583552068707891
ltoes -3.050180184753878
rfemur -25.76841587967703 0.7826683172706841 22.794663528760843
rtibia 55.777304281671114
rfoot -11.51989354759006 -12.660370023624704
rtoes 0.8847794290607256
lowerback 11.713472429799413 0.13388870276007142 -2.0210438726765814
upperback -0.12419800660699289 -0.057713980992518954 1.2350197188541554
thorax -6.331722258652306 0.0842764031367953 3.750949305942707
lowerneck -16.5293804400784 -3.386700356904171 -2.282715167491434
upperneck 21.214452641261826 -4.4953492432383575 1.769117733230779
head 9.449435118341906 -2.058926693176436 0.47153764501069384
lclavicle -2.028009984861815e-15 -7.127311446392718e-16
lhumerus -30.45452681488886 2.454459635211538 80.88073823747372
lradius 22.244764968696202
lwrist 4.176435927454401
lhand -29.838041850906162 21.77056904969859
lfingers 7.12502
lthumb -3.2579472605938 51.12224201812282
rclavicle -2.024743164445339e-15 -7.106391480143322e-16
rhumerus -28.730213713053327 -21.692283935877242 -78.29026809394301
rradius 22.0045697508898
rwrist 3.771404401315304
rhand -18.281636229344304 20.607024453751276
rfingers 7.12502
rthumb 8.231955578475267 -8.54508942287765
